# xmcd CD database file
#
# Track frame offsets:
#	150
#	12737
#	27887
#	47762
#	62775
#	78512
#	95987
#	115825
#	129325
#	148462
#	162287
#	180762
#	200237
#	219400
#	235675
#	252662
#	267437
#	280487
#
# Disc length: 4019 seconds
#
# Revision: 0
# Processed by: cddbd v1.5PL3 Copyright (c) Steve Scherf et al.
# Submitted via: CDex 1.51
#
DISCID=160fb112
DTITLE=Neville Dickie - Stride Summit
DYEAR=1900
DGENRE=Jazz
TTITLE0=Button Up Your Overcoat
TTITLE1=Charleston Rag
TTITLE2=Stealin' Apples
TTITLE3=Blueberry Rhyme
TTITLE4=Sheik Of Araby
TTITLE5=Viper's Drag
TTITLE6=Jack's Blues
TTITLE7=The Way I Feel Today
TTITLE8=Try A Little Tenderness
TTITLE9=Handful Of Keys
TTITLE10=Jeepers Creepers
TTITLE11=I Found A New Baby
TTITLE12=Ain't Cha Got Music
TTITLE13=Nagasaki
TTITLE14=I Wish I Were Twins
TTITLE15=Echo Of Spring
TTITLE16=Russian Fantasy
TTITLE17=I Got Rhythm
EXTD=
EXTT0=
EXTT1=
EXTT2=
EXTT3=
EXTT4=
EXTT5=
EXTT6=
EXTT7=
EXTT8=
EXTT9=
EXTT10=
EXTT11=
EXTT12=
EXTT13=
EXTT14=
EXTT15=
EXTT16=
EXTT17=
PLAYORDER=
